<svg width="17" height="16" viewBox="0 0 17 16" fill="none" xmlns="http://www.w3.org/2000/svg">
<path d="M7.0257 11.3441C7.0257 11.3441 6.35708 13.9186 5.82697 15.988C4.06083 15.4232 2.53547 14.3149 1.48489 12.8329C0.434306 11.351 -0.08348 9.57743 0.0109635 7.78421C0.227786 3.57169 3.80011 0.166648 8.16712 0.00625896C10.2165 -0.0710116 12.2257 0.569308 13.8243 1.80916C15.4229 3.04901 16.5032 4.8048 16.866 6.75282C17.2287 8.70084 16.8495 10.7097 15.7981 12.4091C14.7468 14.1085 13.0943 15.3839 11.1453 16C10.6219 13.9361 9.95519 11.3487 9.95519 11.3487C10.5003 11.077 10.9512 10.6573 11.2522 10.1414C11.5533 9.62547 11.6914 9.03585 11.6497 8.44512C11.5963 7.65276 11.2254 6.91157 10.6155 6.37854C10.0057 5.8455 9.20477 5.5625 8.38245 5.58946C7.56012 5.61642 6.78097 5.95123 6.21001 6.52297C5.63905 7.09472 5.32113 7.85849 5.32359 8.65252C5.32467 9.2094 5.48414 9.75531 5.78462 10.2307C6.0851 10.7062 6.51505 11.0929 7.02761 11.3487" fill="#005EFF"/>
</svg>
