<svg width="16" height="16" viewBox="0 0 16 16" fill="none" xmlns="http://www.w3.org/2000/svg">
<path d="M8.29005 9.55344L1.94505 5.51559C1.61702 5.29866 1.38731 4.96158 1.30538 4.57694C1.22345 4.1923 1.29585 3.79087 1.507 3.45909C1.71814 3.12731 2.05114 2.89172 2.43428 2.80306C2.81743 2.71439 3.22007 2.77974 3.5555 2.98504L8.2105 5.94719L12.3901 3.02144C12.7161 2.80047 13.1161 2.71663 13.5034 2.78804C13.8908 2.85945 14.2346 3.08037 14.4604 3.40309C14.6863 3.72581 14.7761 4.12442 14.7106 4.51283C14.645 4.90125 14.4293 5.24828 14.1101 5.47899L8.29005 9.55344Z" fill="#EA4435"/>
<path d="M13.75 13.25H11.75V4.25C11.75 3.85218 11.908 3.47064 12.1893 3.18934C12.4706 2.90804 12.8522 2.75 13.25 2.75C13.6478 2.75 14.0294 2.90804 14.3107 3.18934C14.592 3.47064 14.75 3.85218 14.75 4.25L14.75 12.25C14.75 12.5152 14.6446 12.7696 14.4571 12.9571C14.2696 13.1446 14.0152 13.25 13.75 13.25Z" fill="#00AC47"/>
<path d="M14.7281 4.03272C14.7237 4.00272 14.724 3.97207 14.7178 3.94212C14.7082 3.89622 14.6903 3.85382 14.6766 3.80952C14.6633 3.75882 14.6473 3.70887 14.6287 3.65987C14.6187 3.63612 14.6033 3.61527 14.592 3.59217C14.5608 3.52552 14.5249 3.46127 14.4843 3.39992C14.4643 3.37087 14.4393 3.34612 14.4172 3.31862C14.3792 3.26864 14.3382 3.22107 14.2944 3.17617C14.2612 3.14382 14.2233 3.11677 14.1871 3.08762C14.1487 3.05468 14.1086 3.02369 14.0671 2.99477C14.0275 2.96887 13.9841 2.94892 13.9421 2.92682C13.8979 2.90377 13.8546 2.87867 13.8086 2.86027C13.7642 2.84237 13.7168 2.83097 13.6703 2.81732C13.6239 2.80367 13.5777 2.78732 13.53 2.77847C13.4709 2.76898 13.4113 2.76297 13.3515 2.76047C13.3135 2.75782 13.2759 2.75117 13.2378 2.75147C13.1671 2.75354 13.0966 2.76064 13.0269 2.77272C12.9987 2.77692 12.9704 2.77657 12.9424 2.78237C12.8481 2.8112 12.754 2.84087 12.6602 2.87137C12.6344 2.88237 12.6119 2.89872 12.5869 2.91112C12.333 3.0296 12.1188 3.21909 11.9703 3.45667C11.8218 3.69426 11.7453 3.96977 11.75 4.24992V7.13092L14.11 5.47877C14.3417 5.32324 14.5234 5.10387 14.6331 4.84721C14.7428 4.59055 14.7758 4.30771 14.7281 4.03272Z" fill="#FFBA00"/>
<path d="M2.75 2.75C3.14782 2.75 3.52936 2.90804 3.81066 3.18934C4.09196 3.47064 4.25 3.85218 4.25 4.25V13.25H2.25C1.98478 13.25 1.73043 13.1446 1.54289 12.9571C1.35536 12.7696 1.25 12.5152 1.25 12.25V4.25C1.25 3.85218 1.40804 3.47064 1.68934 3.18934C1.97064 2.90804 2.35218 2.75 2.75 2.75Z" fill="#4285F4"/>
<path d="M1.27198 4.03283C1.27638 4.00283 1.27603 3.97218 1.28228 3.94223C1.29188 3.89633 1.30973 3.85393 1.32343 3.80963C1.33671 3.75894 1.3527 3.70901 1.37133 3.66003C1.38133 3.63628 1.39673 3.61543 1.40813 3.59233C1.43922 3.52565 1.47522 3.46138 1.51583 3.40003C1.53583 3.37098 1.56083 3.34623 1.58293 3.31873C1.62084 3.26875 1.66182 3.22118 1.70563 3.17628C1.73888 3.14393 1.77678 3.11688 1.81298 3.08773C1.85139 3.05478 1.89144 3.02379 1.93298 2.99488C1.97263 2.96898 2.01603 2.94903 2.05798 2.92693C2.10133 2.90241 2.14589 2.88008 2.19148 2.86003C2.23598 2.84213 2.28338 2.83073 2.32978 2.81708C2.37618 2.80343 2.42243 2.78708 2.47013 2.77823C2.52923 2.76874 2.58883 2.76273 2.64863 2.76023C2.68663 2.75758 2.72418 2.75093 2.76228 2.75123C2.83301 2.75329 2.90351 2.76039 2.97323 2.77248C3.00138 2.77668 3.02973 2.77633 3.05773 2.78213C3.10613 2.79446 3.15386 2.80928 3.20073 2.82653C3.24787 2.83906 3.29434 2.85394 3.33998 2.87113C3.36568 2.88213 3.38823 2.89848 3.41323 2.91088C3.47805 2.94133 3.54058 2.97642 3.60033 3.01588C3.80065 3.15343 3.96448 3.33766 4.07767 3.55268C4.19087 3.7677 4.25002 4.00704 4.25003 4.25003V7.13103L1.89003 5.47898C1.65832 5.3234 1.47664 5.10403 1.36696 4.84738C1.25728 4.59074 1.22429 4.30782 1.27198 4.03283Z" fill="#C52528"/>
</svg>
