<svg width="13" height="16" viewBox="0 0 13 16" fill="none" xmlns="http://www.w3.org/2000/svg">
<path d="M0 8.10296C0 7.60954 0.329376 7.17681 0.804979 7.04539L11.3838 4.1223C12.0826 3.92921 12.7732 4.45488 12.7732 5.17987V11.9789C12.7732 12.4724 12.4438 12.9051 11.9682 13.0365L1.38943 15.9596C0.690626 16.1527 0 15.627 0 14.902V8.10296Z" fill="url(#paint0_linear_235_33503)"/>
<path opacity="0.9" d="M1.17039 2.20888C0.475498 2.41855 0 3.05869 0 3.78453V12.7302C0.14921 11.9095 1.01374 11.3538 2.09967 11.0042L2.3713 10.9223C2.42087 10.9082 2.47079 10.8946 2.52103 10.8814L2.47835 10.89L8.57759 9.04967C9.27249 8.84 9.74799 8.19986 9.74799 7.47402V1.09793C9.74799 0.362229 9.03818 -0.165017 8.33384 0.0474986L1.17039 2.20888Z" fill="#00BF63"/>
<defs>
<linearGradient id="paint0_linear_235_33503" x1="8.84979" y1="11.5157" x2="2.04955" y2="6.39154" gradientUnits="userSpaceOnUse">
<stop offset="0.148449" stop-color="#008846"/>
<stop offset="1" stop-color="#004A26"/>
</linearGradient>
</defs>
</svg>
