<svg width="16" height="16" viewBox="0 0 16 16" fill="none" xmlns="http://www.w3.org/2000/svg">
<path d="M12 10.725V12.5C11.9992 12.765 11.8936 13.0189 11.7062 13.2062C11.5189 13.3936 11.265 13.4992 11 13.5H4.5V10.5H9V8L12 10.725Z" fill="#00AC47"/>
<path d="M12 5.5V10.725L9 8V5.5H12Z" fill="#31A950"/>
<path d="M4.5 2.5V5.5H1.5L4.5 2.5Z" fill="#EA4435"/>
<path d="M4.5 5.5H1.5V11H4.5V5.5Z" fill="#4285F4"/>
<path d="M12 3.5V5.5H11.75L9 8V5.5H4.5V2.5H11C11.265 2.50078 11.5189 2.60638 11.7062 2.79375C11.8936 2.98112 11.9992 3.23502 12 3.5Z" fill="#FFBA00"/>
<path d="M4.5 10.5V13.5H2.5C2.23502 13.4992 1.98112 13.3936 1.79375 13.2062C1.60638 13.0189 1.50078 12.765 1.5 12.5V10.5H4.5Z" fill="#0066DA"/>
<path d="M14.5 4.12988V11.8699C14.5 11.9666 14.4719 12.0612 14.4192 12.1423C14.3665 12.2234 14.2913 12.2874 14.2029 12.3266C14.1145 12.3657 14.0166 12.3784 13.9211 12.363C13.8256 12.3476 13.7366 12.3049 13.665 12.2399L12 10.7249L9 7.99988L11.75 5.49988L12 5.27488L13.665 3.75988C13.7366 3.6949 13.8256 3.65212 13.9211 3.63673C14.0166 3.62135 14.1145 3.63401 14.2029 3.67319C14.2913 3.71237 14.3665 3.77639 14.4192 3.85746C14.4719 3.93853 14.5 4.03316 14.5 4.12988Z" fill="#00AC47"/>
<path d="M12 5.2749V10.7249L9 7.9999L11.75 5.4999L12 5.2749Z" fill="#188038"/>
</svg>
