<svg width="20" height="16" viewBox="0 0 20 16" fill="none" xmlns="http://www.w3.org/2000/svg">
<path d="M4.21977 0C3.97746 0 3.74622 0.14035 3.6414 0.376732L0.0542019 8.48968C-0.0674782 8.76511 0.0210164 9.08855 0.266484 9.26267C0.266484 9.26267 9.55157 15.8523 9.59529 15.8835C9.81442 16.0386 10.1073 16.0391 10.3259 15.8835C10.3696 15.8523 19.4582 9.40249 19.6516 9.26478C19.8975 9.09013 19.986 8.76669 19.8638 8.49073C19.7385 8.20792 16.3146 0.465376 16.2798 0.387285C16.1386 0.0675373 15.7652 -0.0770359 15.4459 0.0648985C15.1267 0.206305 14.9824 0.5804 15.1241 0.900148C15.1541 0.967686 17.731 6.79544 18.499 8.53136C16.923 9.64995 11.4326 13.5466 9.96086 14.5907C8.48753 13.545 2.99085 9.64415 1.41955 8.52925L4.79762 0.890123C4.93879 0.570375 4.79499 0.19628 4.47577 0.0548725C4.39255 0.0179386 4.30563 0.000526428 4.2203 0.000526428L4.21977 0Z" fill="#AEFC40"/>
<path d="M4.22351 0C4.08615 0 3.9488 0.0448484 3.8346 0.134019C3.61463 0.306027 3.53359 0.602559 3.63515 0.863211L9.37079 15.5969C9.46551 15.8401 9.69917 16 9.95914 16C10.2191 16 10.4528 15.8401 10.5475 15.5974L16.2831 0.87429C16.3847 0.613639 16.3036 0.317636 16.0842 0.1451C15.8647 -0.0274372 15.5585 -0.0348244 15.3306 0.126633L9.95966 3.93194L4.58873 0.116608C4.47926 0.038517 4.35139 0 4.22351 0ZM9.95914 13.6262L5.57755 2.37172L9.59339 5.22464C9.81179 5.37977 10.1044 5.37977 10.3228 5.22464L14.3402 2.37805L9.95914 13.6262Z" fill="#AEFC40"/>
</svg>
