<svg width="17" height="16" viewBox="0 0 17 16" fill="none" xmlns="http://www.w3.org/2000/svg">
<path d="M6.13888 0.994008C7.54219 2.31935 7.54219 4.47249 6.13888 5.79783C4.73558 7.12318 2.45579 7.12318 1.05248 5.79783C-0.350827 4.47249 -0.350827 2.31935 1.05248 0.994008C2.45579 -0.331336 4.73558 -0.331336 6.13888 0.994008Z" fill="#9EA0A3"/>
<path d="M9.54676 4.67946L4.94522 9.00335C4.33448 9.57575 3.99414 10.3551 3.99414 11.1653V12.9486C3.99414 14.635 5.43941 15.9999 7.22501 15.9999C9.01061 15.9999 10.4559 14.635 10.4559 12.9486V9.89718H13.7194C15.505 9.89718 16.9502 8.53221 16.9502 6.84581C16.9502 5.15941 15.505 3.79443 13.7194 3.79443H11.8219C10.9687 3.79443 10.1482 4.11586 9.54209 4.68387" fill="#161618"/>
</svg>
